<svg xmlns="http://www.w3.org/2000/svg" xmlns:xlink="http://www.w3.org/1999/xlink" viewBox="0,0,256,256" width="150px" height="150px"><g fill="#ffffff" fill-rule="nonzero" stroke="none" stroke-width="1" stroke-linecap="butt" stroke-linejoin="miter" stroke-miterlimit="10" stroke-dasharray="" stroke-dashoffset="0" font-family="none" font-weight="none" font-size="none" text-anchor="none" style="mix-blend-mode: normal"><g transform="scale(5.12,5.12)"><path d="M22.05469,2.60352c-0.34127,0.00255 -0.67779,0.02125 -1.00781,0.05469c-1.32008,0.13374 -2.54765,0.50726 -3.66602,1.06445c-2.23672,1.11438 -4.04083,2.91881 -5.48828,4.92188c-2.89491,4.00613 -4.40301,8.80997 -4.87305,11.16016c-0.99742,4.98708 -1.97686,9.48487 0.01953,16.4707c1.07602,3.76608 3.37501,5.57673 5.375,6.29102c2,0.71428 3.75,0.41992 3.75,0.41992c0.04691,-0.00711 0.09325,-0.01756 0.13867,-0.03125c1.10972,1.53221 2.38633,2.87579 3.7793,3.94531c0.96757,0.74333 2.14951,1.09961 3.33008,1.09961h1.58789h1.58789c1.18057,0 2.36251,-0.35619 3.33008,-1.09961c1.38507,-1.06346 2.65442,-2.39858 3.75977,-3.91992c0.00909,0.00208 0.0182,0.00403 0.02734,0.00586c0,0 1.75196,0.29436 3.75195,-0.41992c1.99999,-0.71428 4.29898,-2.52493 5.375,-6.29102c1.99639,-6.98583 1.01499,-11.48363 0.01758,-16.4707c-0.47004,-2.35018 -1.97814,-7.15403 -4.87305,-11.16016c-1.44745,-2.00307 -3.24961,-3.8075 -5.48633,-4.92187c-1.11836,-0.55719 -2.34789,-0.93071 -3.66797,-1.06445c-1.22159,-0.12376 -2.52369,-0.03083 -3.88672,0.30273c-0.99498,-0.24345 -1.95889,-0.3643 -2.88086,-0.35742zM22.06445,4.5918c0.7276,-0.00314 1.49915,0.097 2.3125,0.29102c0.17675,0.09562 0.37822,0.13578 0.57813,0.11523c0.17103,0.00771 0.34117,-0.0286 0.49414,-0.10547c2.38858,-0.57959 4.38192,-0.25902 6.14844,0.62109c1.845,0.91921 3.43989,2.47892 4.75781,4.30273c2.63584,3.64762 4.12624,8.34409 4.5332,10.37891c1.00259,5.01292 1.90914,8.91713 0.01953,15.5293c-0.92398,3.23392 -2.62499,4.42327 -4.125,4.95898c-0.71229,0.25439 -1.3576,0.33402 -1.84961,0.35547c1.87988,-3.25766 3.03634,-7.12328 3.03711,-11.03516v-0.00195c0.03041,-7.22928 -2.04772,-12.39231 -4.07617,-16.44922c-1.15336,-2.30673 -3.24062,-3.34163 -5.1543,-3.36719c-1.48198,-0.01979 -2.76645,0.60733 -3.74023,1.5293c-0.97378,-0.92197 -2.25826,-1.54909 -3.74023,-1.5293c-1.91368,0.02556 -4.00093,1.06046 -5.1543,3.36719c-2.02826,4.05652 -4.10617,9.21904 -4.07617,16.44727v0.00195v0.00195c0.00076,3.91549 1.15804,7.78539 3.04102,11.04492c-0.50414,-0.01087 -1.20478,-0.08681 -1.98437,-0.36523c-1.50001,-0.53572 -3.20102,-1.72507 -4.125,-4.95898c-1.88961,-6.61217 -0.98305,-10.51637 0.01953,-15.5293c0.40696,-2.03482 1.89736,-6.73129 4.5332,-10.37891c1.31792,-1.82381 2.91282,-3.38352 4.75781,-4.30273c1.15312,-0.57451 2.40098,-0.91588 3.79297,-0.92187zM21.28711,12.18555c1.25502,-0.01676 2.42324,0.64163 2.82617,1.30078c0.16344,0.3017 0.47014,0.49855 0.8125,0.52148c0.01754,0.00177 0.03513,0.00307 0.05273,0.00391c0.06676,0.00146 0.1335,-0.00378 0.19922,-0.01562c0.30195,-0.05233 0.56324,-0.2402 0.70898,-0.50977c0.40293,-0.65915 1.57115,-1.31754 2.82617,-1.30078c1.26857,0.01694 2.54594,0.56845 3.39258,2.26172c1.87792,3.75584 3.69153,8.27419 3.83594,14.61133l-1.23633,1.23633c-0.457,0.457 -0.74813,1.05331 -0.82812,1.69531l-0.64453,5.15625c-0.164,1.309 -0.71784,2.54616 -1.58984,3.53516c-0.218,0.248 -0.43158,0.46216 -0.64258,0.66016v-4.6875c0,-0.918 -0.50355,-1.76222 -1.31055,-2.19922l-2.68945,-1.45508h-4l-2.68945,1.45703c-0.807,0.437 -1.31055,1.28222 -1.31055,2.19922v4.68555c-0.211,-0.198 -0.42358,-0.4112 -0.64258,-0.6582c-0.872,-0.989 -1.42584,-2.22911 -1.58984,-3.53711l-0.64453,-5.15625c-0.08,-0.642 -0.37112,-1.23831 -0.82812,-1.69531l-1.23633,-1.23633c0.14441,-6.33714 1.95802,-10.85549 3.83594,-14.61133c0.84664,-1.69327 2.124,-2.24478 3.39258,-2.26172zM17,23c-0.36064,-0.0051 -0.69608,0.18438 -0.87789,0.49587c-0.18181,0.3115 -0.18181,0.69676 0,1.00825c0.18181,0.3115 0.51725,0.50097 0.87789,0.49587h1.08789c-0.16219,0.45875 -0.09179,0.96768 0.18886,1.36517c0.28065,0.39749 0.73667,0.63415 1.22325,0.63483c0.48693,-0.00005 0.94353,-0.23645 1.22464,-0.63404c0.28111,-0.39759 0.35173,-0.90689 0.18942,-1.36596h0.08594c0.36064,0.0051 0.69608,-0.18438 0.87789,-0.49587c0.18181,-0.3115 0.18181,-0.69676 0,-1.00825c-0.18181,-0.3115 -0.51725,-0.50097 -0.87789,-0.49587zM29,23c-0.36064,-0.0051 -0.69608,0.18438 -0.87789,0.49587c-0.18181,0.3115 -0.18181,0.69676 0,1.00825c0.18181,0.3115 0.51725,0.50097 0.87789,0.49587h0.08789c-0.16219,0.45875 -0.09179,0.96768 0.18886,1.36517c0.28065,0.39749 0.73667,0.63415 1.22325,0.63483c0.48693,-0.00005 0.94353,-0.23645 1.22464,-0.63404c0.28111,-0.39759 0.35173,-0.90689 0.18942,-1.36596h1.08594c0.36064,0.0051 0.69608,-0.18438 0.87789,-0.49587c0.18181,-0.3115 0.18181,-0.69676 0,-1.00825c-0.18181,-0.3115 -0.51725,-0.50097 -0.87789,-0.49587zM22.43164,38h5.13672c0.79,0 1.43164,0.64164 1.43164,1.43164v3.20313c-0.654,0.243 -1.31,0.33333 -2,0.36133v-1.44727c0,-0.855 -0.69383,-1.54883 -1.54883,-1.54883h-0.90234c-0.855,0 -1.54883,0.69383 -1.54883,1.54883v1.44727c-0.69,-0.028 -1.346,-0.11833 -2,-0.36133v-3.20312c0,-0.79 0.64164,-1.43164 1.43164,-1.43164z"></path></g></g></svg>